HIERARCHY
ROOT Hips
{
    OFFSET 0.0 0.0 0.0
    CHANNELS 6 Xposition Yposition Zposition Zrotation Xrotation Yrotation
    JOINT LeftUpLeg
    {
        OFFSET 13.616141844219582 0.0 0.0
        CHANNELS 3 Zrotation Xrotation Yrotation
        JOINT LeftLeg
        {
            OFFSET 0.0 0.0 -57.55549897180633
            CHANNELS 3 Zrotation Xrotation Yrotation
            JOINT LeftFoot
            {
                OFFSET 0.0 0.0 -47.24407754796516
                CHANNELS 3 Zrotation Xrotation Yrotation
                JOINT LeftToeBase
                {
                    OFFSET 0.0 -11.650291876086836 0.0
                    CHANNELS 3 Zrotation Xrotation Yrotation
                    End Site
                    {
                        OFFSET 0 0 0
                    }
                }
            }
        }
    }
    JOINT RightUpLeg
    {
        OFFSET -13.616141844219582 0.0 0.0
        CHANNELS 3 Zrotation Xrotation Yrotation
        JOINT RightLeg
        {
            OFFSET 0.0 0.0 -57.55549897180633
            CHANNELS 3 Zrotation Xrotation Yrotation
            JOINT RightFoot
            {
                OFFSET 0.0 0.0 -47.24407754796516
                CHANNELS 3 Zrotation Xrotation Yrotation
                JOINT RightToeBase
                {
                    OFFSET 0.0 -11.650291876086836 0.0
                    CHANNELS 3 Zrotation Xrotation Yrotation
                    End Site
                    {
                        OFFSET 0 0 0
                    }
                }
            }
        }
    }
    JOINT Spine
    {
        OFFSET 0.0 0.0 11.967488746265765
        CHANNELS 3 Zrotation Xrotation Yrotation
        JOINT Spine1
        {
            OFFSET 0.0 0.0 11.872508829551373
            CHANNELS 3 Zrotation Xrotation Yrotation
            JOINT Spine2
            {
                OFFSET 0.0 0.0 11.872508829551373
                CHANNELS 3 Zrotation Xrotation Yrotation
                JOINT Spine3
                {
                    OFFSET 0.0 0.0 11.87250882955137
                    CHANNELS 3 Zrotation Xrotation Yrotation
                    JOINT Spine4
                    {
                        OFFSET 0.0 0.0 11.872508829551379
                        CHANNELS 3 Zrotation Xrotation Yrotation
                        JOINT RightShoulder
                        {
                            OFFSET -24.358366125070553 0.0 0.0
                            CHANNELS 3 Zrotation Xrotation Yrotation
                            JOINT RightArm
                            {
                                OFFSET -34.674445297469155 0.0 0.0
                                CHANNELS 3 Zrotation Xrotation Yrotation
                                JOINT RightForeArm
                                {
                                    OFFSET -33.82106791342453 0.0 0.0
                                    CHANNELS 3 Zrotation Xrotation Yrotation
                                    JOINT RightHand
                                    {
                                        OFFSET -11.495984255705839 0.0 0.0
                                        CHANNELS 3 Zrotation Xrotation Yrotation
                                        End Site
                                        {
                                            OFFSET 0 0 0
                                        }
                                    }
                                }
                            }
                        }
                        JOINT LeftShoulder
                        {
                            OFFSET 24.358366125070553 0.0 0.0
                            CHANNELS 3 Zrotation Xrotation Yrotation
                            JOINT LeftArm
                            {
                                OFFSET 34.674445297469155 0.0 0.0
                                CHANNELS 3 Zrotation Xrotation Yrotation
                                JOINT LeftForeArm
                                {
                                    OFFSET 33.82106791342453 0.0 0.0
                                    CHANNELS 3 Zrotation Xrotation Yrotation
                                    JOINT LeftHand
                                    {
                                        OFFSET 11.495984255705839 0.0 0.0
                                        CHANNELS 3 Zrotation Xrotation Yrotation
                                        End Site
                                        {
                                            OFFSET 0 0 0
                                        }
                                    }
                                }
                            }
                        }
                        JOINT Neck
                        {
                            OFFSET 0.0 0.0 11.872508810545177
                            CHANNELS 3 Zrotation Xrotation Yrotation
                            JOINT Head
                            {
                                OFFSET 0.0 0.0 25.750678296215384
                                CHANNELS 3 Zrotation Xrotation Yrotation
                                End Site
                                {
                                    OFFSET 0 0 0
                                }
                            }
                        }
                    }
                }
            }
        }
    }
}
MOTION
Frames: 8
Frame Time: 0.03333333333333333
57.29609198570252 -10.52125883102417 437.1969938278198 98.466884478052 -82.41244741055783 111.46912497883835 -6.000354210197508 5.92042146623098 -22.037191887959906 8.949777444425877 -4.213548206414158 10.420976101838091 39.358478855737054 -1.5902773407317584e-14 50.89150710047799 1.5902773407317584e-15 -2.758691436281349e-32 -1.987846675914698e-15 13.33354933726736 13.218654663172561 0.8507431058439261 -23.429340704544703 -21.225683891670904 -30.914515457663807 108.97346545015395 1.2722218725854067e-14 -51.56121510612856 -6.3611093629270335e-15 0.0 0.0 -0.32854146573387544 -5.863125003877587 -5.059749819961051 -7.702905869169456e-16 1.670301455560973e-33 -2.484808344893373e-16 -7.702905869169456e-16 1.670301455560973e-33 -2.484808344893373e-16 -7.702905869169456e-16 1.670301455560973e-33 -2.484808344893373e-16 -7.702905869169456e-16 1.670301455560973e-33 -2.484808344893373e-16 162.5167120897154 31.874263605928604 -170.79299679692025 113.83470718100817 -2.170125099582225e-15 3.3311701667647805e-15 2.9001493456762365e-14 -57.08686241713219 6.7234456751585555e-15 0.0 0.0 1.987846675914698e-15 -119.7841263182691 -80.82919765907809 176.33684658172072 -13.932194958201299 1.4171280854419059e-14 -1.1085328031326796e-14 -180.0 -63.26485187623961 -180.0 0.0 0.0 1.5902773407317584e-15 -0.266145574450477 5.3763320154821044e-15 -1.9256688695876346e-15 -7.951386703658792e-16 2.4138550067461805e-33 -3.4787316828507215e-16
57.18616254329682 -10.501323455572129 437.05888767242436 104.35385916832665 -81.33494528962137 116.2264910078867 -6.1005949120936585 7.233393799447322 -20.89966808034397 10.16636217701325 -4.8762837918820905 10.67416789367719 38.428222557354495 -3.1805546814635168e-15 50.721786516689804 6.5598940305185035e-15 -2.275920434932113e-32 -3.975693351829396e-16 12.784500735295868 13.949029788961283 1.9808246614048834 -23.18424818327289 -20.40705083898805 -30.9719564584242 111.20367357812563 -3.1805546814635168e-15 -47.362740263363 0.0 0.0 0.0 -0.21651762552507156 -4.567923554270351 -5.16080346979759 -1.9878466759146977e-16 1.034509288605506e-33 -5.963540027744093e-16 -1.9878466759146977e-16 1.034509288605506e-33 -5.963540027744093e-16 -1.9878466759146977e-16 1.034509288605506e-33 -5.963540027744093e-16 -1.9878466759146977e-16 1.034509288605506e-33 -5.963540027744093e-16 162.41677482248593 30.355349126438277 -171.06195749283737 114.87740874494492 -2.0446729074453016e-15 -8.617265847089766e-15 -1.1783726136127978e-14 -68.2019280235781 -6.0579647887191315e-15 0.0 0.0 -1.5902773407317584e-15 -105.10177749881385 -77.19632982092999 -168.2554579664304 -14.692481737458033 1.545175525838041e-14 8.405848103251284e-15 -1.0104348520202684e-13 -82.68925750843266 -9.73814233860617e-14 0.0 0.0 0.0 0.42180064709419357 -8.693111761092792e-15 1.0259287347668341e-15 5.963540027744094e-16 2.4848083448933725e-17 -1.2931366107568824e-34
56.99728939533234 -10.334530225396158 436.81803874969484 107.88802115993693 -79.93731746817268 118.4304523717322 -5.502732880194522 7.837813063002205 -19.674294632754496 10.537724902107925 -5.230059620214581 10.883120078585451 37.04167910311263 -1.5902773407317584e-15 50.5336722136433 2.9817700138720468e-15 0.0 0.0 12.486883705214064 14.857778772356122 3.1052369959321364 -23.590401000851134 -19.971512505998017 -31.131664787791518 123.89190279030579 -7.951386703658792e-15 -36.974798712164464 0.0 0.0 0.0 -0.14580214426535984 -3.2730071473657976 -4.741920235844877 1.1927080055488188e-15 0.0 0.0 1.1927080055488188e-15 0.0 0.0 1.1927080055488188e-15 0.0 0.0 1.1927080055488188e-15 0.0 0.0 161.4377040802078 29.171665740249672 -170.924758765431 115.59903674912225 -8.474323789524967e-16 1.3456746945483463e-15 9.052382885371815e-15 -77.19993519546412 -9.052382885371815e-15 0.0 0.0 2.3854160110976376e-15 -98.9547417813843 -71.87414752239239 -160.8558539449751 -16.149152383579914 -3.0427850477019673e-15 -6.856479352290048e-15 3.937580010605812e-14 -81.72786599433046 4.247623865667076e-14 0.0 0.0 0.0 0.5187940427203178 2.93258377473233e-14 1.0599515154781755e-15 0.0 0.0 0.0
56.76166055202484 -10.066783457994463 436.51181144714354 109.79632025382261 -78.57269667289216 119.02340911495965 -4.730312015807705 8.086028430337956 -18.472703956604647 10.505230567133454 -5.465753786523076 11.006661739010825 35.67857522617195 1.1131941385122309e-14 50.31781817215813 2.782985346280577e-15 -3.862168010793889e-32 -1.5902773407317584e-15 12.43514231746853 15.686893482433963 4.117259123711274 -24.32852847625638 -19.706996702086027 -31.103210997472704 126.76885949163568 -3.1805546814635168e-15 -37.502594739819386 0.0 0.0 0.0 -0.09900695315743442 -2.1211810916799974 -4.26496532846645 -3.975693351829396e-16 0.0 0.0 -3.975693351829396e-16 0.0 0.0 -3.975693351829396e-16 0.0 0.0 -3.975693351829396e-16 0.0 0.0 160.30496624403057 28.142843659199322 -170.53933146147386 116.49210087181922 -4.070243681244387e-15 -1.759777474138978e-14 -5.340789866685064e-14 -86.49123711094651 -5.6782968396757726e-14 0.0 0.0 3.1805546814635168e-15 -98.2379854281275 -67.32533134649532 -158.4153037557677 -18.620223417775748 -1.1229725313809083e-14 4.6050485412544005e-15 180.0 -70.76302110151106 180.0 1.5902773407317584e-15 4.4139062980501586e-32 3.1805546814635168e-15 0.2083328920535073 1.8634586188813864e-14 -8.290185837417912e-16 0.0 0.0 -3.975693351829396e-16
56.49924788475037 -9.668477752804758 436.14880485534667 110.35963209551068 -77.42412990575751 118.44077702306939 -4.10444037951795 8.079154352974404 -17.339504892430593 10.299523386785632 -5.67277650163407 11.002770088816478 34.74049542103409 1.1131941385122309e-14 50.02006328133665 -1.987846675914698e-16 -2.758691436281349e-33 1.5902773407317584e-15 12.729773569478962 16.24159169216276 4.931190948698478 -25.384733177996523 -19.51847500769607 -31.017923082068023 127.50972600669387 6.3611093629270335e-15 -39.125854023753654 -1.2722218725854067e-14 6.3611093629270335e-15 7.062250076880254e-31 -0.06737030889489799 -1.2349366954510013 -3.806462804167847 -7.951386703658792e-16 0.0 0.0 -7.951386703658792e-16 0.0 0.0 -7.951386703658792e-16 0.0 0.0 -7.951386703658792e-16 0.0 0.0 158.76642566953143 27.1833546591398 -169.74572566298147 117.2017313831341 -1.8124078498841268e-15 2.969301585718064e-15 179.99999999999997 -84.37905614941363 179.99999999999997 0.0 0.0 3.1805546814635168e-15 -92.32903713067593 -64.36675693152341 -151.73682836800705 -18.04210168999111 1.9948100251492096e-15 -1.2564855043813127e-14 -180.0 -57.20690950091863 180.0 7.951386703658792e-16 -1.1034765745125397e-32 -1.5902773407317584e-15 -0.241341493125391 -2.306064494136015e-14 7.465722953380855e-16 -7.951386703658792e-16 0.0 0.0
56.21102306842804 -9.149361589550972 435.73636093139646 110.16569449807167 -76.43747075147184 117.23364723333755 -3.610775169410319 7.872857468207372 -16.256356730289923 10.37993455070971 -6.0717730874023585 12.734813454766341 22.2661059039051 2.2263882770244617e-14 42.614532525718325 7.951386703658792e-16 -1.6552148617688095e-32 -2.3854160110976376e-15 13.314768215259926 16.599255949939618 5.578357675895365 -26.714193162153105 -19.37987411592059 -30.89880053868535 128.1754382051675 -9.54166404439055e-15 -40.58500989688193 0.0 0.0 0.0 -0.03716983160053452 -0.5609829726090545 -3.34960668100931 0.0 0.0 0.0 0.0 0.0 0.0 0.0 0.0 0.0 0.0 0.0 0.0 156.97943461969936 26.683576148472763 -168.73262980986493 117.30027954084586 -7.216426702564206e-15 -3.8102827100142186e-16 179.99999999999997 -79.46381869359945 179.99999999999997 0.0 0.0 1.1927080055488188e-15 -88.83691381480608 -61.24611047547552 -147.35041719163323 -17.30448808841468 6.152340636239374e-16 6.5279538443925605e-15 -180.0 -39.07874994069158 -180.0 0.0 0.0 -7.951386703658792e-16 -0.713078197390067 1.1434845024977646e-14 -7.239966087475939e-16 0.0 0.0 0.0
55.90078260898591 -8.535163083672524 435.28557815551756 109.83160724798246 -75.60579734178268 115.91519438091974 -3.2689141799550483 7.62806297973061 -15.121036106834648 10.414559888204131 -6.4837948613019485 14.720546555465527 -2.9077283752198233 -2.683593012484842e-15 34.327485252904154 -1.5902773407317584e-15 4.4139062980501586e-32 -3.1805546814635168e-15 14.037211437154408 16.83949126666757 6.175178927555001 -28.178865129774582 -19.22085080354175 -30.71138403990862 128.94397728532468 -9.54166404439055e-15 -41.9605941601487 0.0 0.0 -1.5902773407317584e-15 -9.219060194208158e-05 -0.0011673589409548998 -2.982993872424938 7.951386703658792e-16 0.0 0.0 7.951386703658792e-16 0.0 0.0 7.951386703658792e-16 0.0 0.0 7.951386703658792e-16 0.0 0.0 155.07077253129702 26.486069056326926 -167.6532196437392 116.95027823461062 1.646771441429475e-15 -2.6846712855030034e-15 -180.0 -76.18020793532388 -180.0 -3.1805546814635176e-15 -4.4139062980501586e-32 1.5902773407317588e-15 -86.80581671600726 -58.10084759265465 -144.28743239756676 -17.1611911621521 -1.0383944407721603e-14 4.8662884830721524e-15 180.0 -30.938194129316155 180.0 0.0 0.0 2.782985346280577e-15 -1.0712272556283822 -1.9654607463053448e-15 -2.403894342037294e-15 7.951386703658792e-16 0.0 0.0
55.63246550559998 -7.949073761701584 434.881971359253 109.66075578914248 -75.19677166714587 114.95160607076194 -3.320748869683139 7.545881781837596 -14.083270586815393 10.44831513670469 -6.838454519185186 16.0238146602862 -20.421545426691445 1.1131941385122309e-14 30.269654004235576 0.0 0.0 -3.1805546814635168e-15 14.644126080129924 16.84793015693044 6.711616894554941 -29.31694455272777 -18.965060485978235 -30.454635040408238 120.25949824472801 3.1805546814635168e-15 -49.6738683405829 0.0 0.0 -1.5902773407317584e-15 0.03179656935882686 0.36581083091899236 -2.7835179174725946 0.0 0.0 0.0 0.0 0.0 0.0 0.0 0.0 0.0 0.0 0.0 0.0 153.3431726256215 26.369434024429975 -166.52745277513247 116.33678633994087 -1.6906081200243038e-15 2.7233161898347886e-15 179.99999999999997 -73.20033484414259 179.99999999999997 0.0 0.0 -1.5902773407317584e-15 -86.01879861219463 -56.07266327296198 -142.68928196430812 -17.00968079077921 1.572789653623267e-14 2.3519082869125387e-15 -180.0 -29.048498778497088 180.0 0.0 0.0 2.3854160110976376e-15 -0.9889279424688839 -2.586163041384091e-14 2.162312802908958e-15 0.0 0.0 0.0
